<mxfile host="app.diagrams.net" agent="Mozilla/5.0 (Windows NT 10.0; Win64; x64) AppleWebKit/537.36 (KHTML, like Gecko) Chrome/129.0.0.0 Safari/537.36" version="24.7.12">
  <diagram name="第 1 页" id="o4xMzlawKdsO6EGE4a3R">
    <mxGraphModel dx="893" dy="536" grid="1" gridSize="10" guides="1" tooltips="1" connect="1" arrows="1" fold="1" page="1" pageScale="1" pageWidth="827" pageHeight="1169" math="0" shadow="0">
      <root>
        <mxCell id="0" />
        <mxCell id="1" parent="0" />
        <mxCell id="2L9yJ2ztC3iXmBt1rZ5b-4" value="" style="edgeStyle=orthogonalEdgeStyle;rounded=0;orthogonalLoop=1;jettySize=auto;html=1;" edge="1" parent="1" source="2L9yJ2ztC3iXmBt1rZ5b-2" target="2L9yJ2ztC3iXmBt1rZ5b-3">
          <mxGeometry relative="1" as="geometry" />
        </mxCell>
        <mxCell id="2L9yJ2ztC3iXmBt1rZ5b-2" value="开始执行任务" style="ellipse;whiteSpace=wrap;html=1;" vertex="1" parent="1">
          <mxGeometry x="354" y="30" width="120" height="80" as="geometry" />
        </mxCell>
        <mxCell id="2L9yJ2ztC3iXmBt1rZ5b-11" value="" style="edgeStyle=orthogonalEdgeStyle;rounded=0;orthogonalLoop=1;jettySize=auto;html=1;" edge="1" parent="1" source="2L9yJ2ztC3iXmBt1rZ5b-3" target="2L9yJ2ztC3iXmBt1rZ5b-10">
          <mxGeometry relative="1" as="geometry" />
        </mxCell>
        <mxCell id="2L9yJ2ztC3iXmBt1rZ5b-3" value="查询所有已配置并且周期为长周期的任务" style="whiteSpace=wrap;html=1;" vertex="1" parent="1">
          <mxGeometry x="354" y="200" width="120" height="60" as="geometry" />
        </mxCell>
        <mxCell id="2L9yJ2ztC3iXmBt1rZ5b-18" value="" style="edgeStyle=orthogonalEdgeStyle;rounded=0;orthogonalLoop=1;jettySize=auto;html=1;" edge="1" parent="1" source="2L9yJ2ztC3iXmBt1rZ5b-7" target="2L9yJ2ztC3iXmBt1rZ5b-17">
          <mxGeometry relative="1" as="geometry" />
        </mxCell>
        <mxCell id="2L9yJ2ztC3iXmBt1rZ5b-19" value="y" style="edgeLabel;html=1;align=center;verticalAlign=middle;resizable=0;points=[];" vertex="1" connectable="0" parent="2L9yJ2ztC3iXmBt1rZ5b-18">
          <mxGeometry x="-0.008" y="1" relative="1" as="geometry">
            <mxPoint as="offset" />
          </mxGeometry>
        </mxCell>
        <mxCell id="2L9yJ2ztC3iXmBt1rZ5b-24" style="edgeStyle=orthogonalEdgeStyle;rounded=0;orthogonalLoop=1;jettySize=auto;html=1;exitX=0;exitY=0.5;exitDx=0;exitDy=0;entryX=0.75;entryY=1;entryDx=0;entryDy=0;" edge="1" parent="1" source="2L9yJ2ztC3iXmBt1rZ5b-7" target="2L9yJ2ztC3iXmBt1rZ5b-22">
          <mxGeometry relative="1" as="geometry" />
        </mxCell>
        <mxCell id="2L9yJ2ztC3iXmBt1rZ5b-25" value="n" style="edgeLabel;html=1;align=center;verticalAlign=middle;resizable=0;points=[];" vertex="1" connectable="0" parent="2L9yJ2ztC3iXmBt1rZ5b-24">
          <mxGeometry x="-0.4863" relative="1" as="geometry">
            <mxPoint as="offset" />
          </mxGeometry>
        </mxCell>
        <mxCell id="2L9yJ2ztC3iXmBt1rZ5b-7" value="判断配置是否完整" style="rhombus;whiteSpace=wrap;html=1;" vertex="1" parent="1">
          <mxGeometry x="331" y="470" width="166" height="100" as="geometry" />
        </mxCell>
        <mxCell id="2L9yJ2ztC3iXmBt1rZ5b-12" value="" style="edgeStyle=orthogonalEdgeStyle;rounded=0;orthogonalLoop=1;jettySize=auto;html=1;" edge="1" parent="1" source="2L9yJ2ztC3iXmBt1rZ5b-10" target="2L9yJ2ztC3iXmBt1rZ5b-7">
          <mxGeometry relative="1" as="geometry" />
        </mxCell>
        <mxCell id="2L9yJ2ztC3iXmBt1rZ5b-10" value="循环拿取任务" style="whiteSpace=wrap;html=1;" vertex="1" parent="1">
          <mxGeometry x="354" y="340" width="120" height="60" as="geometry" />
        </mxCell>
        <mxCell id="2L9yJ2ztC3iXmBt1rZ5b-21" value="" style="edgeStyle=orthogonalEdgeStyle;rounded=0;orthogonalLoop=1;jettySize=auto;html=1;" edge="1" parent="1" source="2L9yJ2ztC3iXmBt1rZ5b-17" target="2L9yJ2ztC3iXmBt1rZ5b-20">
          <mxGeometry relative="1" as="geometry" />
        </mxCell>
        <mxCell id="2L9yJ2ztC3iXmBt1rZ5b-17" value="获取初始排查时间" style="whiteSpace=wrap;html=1;" vertex="1" parent="1">
          <mxGeometry x="354" y="640" width="120" height="60" as="geometry" />
        </mxCell>
        <mxCell id="2L9yJ2ztC3iXmBt1rZ5b-23" value="" style="edgeStyle=orthogonalEdgeStyle;rounded=0;orthogonalLoop=1;jettySize=auto;html=1;" edge="1" parent="1" source="2L9yJ2ztC3iXmBt1rZ5b-20" target="2L9yJ2ztC3iXmBt1rZ5b-22">
          <mxGeometry relative="1" as="geometry" />
        </mxCell>
        <mxCell id="2L9yJ2ztC3iXmBt1rZ5b-26" value="n" style="edgeLabel;html=1;align=center;verticalAlign=middle;resizable=0;points=[];" vertex="1" connectable="0" parent="2L9yJ2ztC3iXmBt1rZ5b-23">
          <mxGeometry x="-0.7877" y="1" relative="1" as="geometry">
            <mxPoint as="offset" />
          </mxGeometry>
        </mxCell>
        <mxCell id="2L9yJ2ztC3iXmBt1rZ5b-29" value="" style="edgeStyle=orthogonalEdgeStyle;rounded=0;orthogonalLoop=1;jettySize=auto;html=1;" edge="1" parent="1" source="2L9yJ2ztC3iXmBt1rZ5b-20" target="2L9yJ2ztC3iXmBt1rZ5b-28">
          <mxGeometry relative="1" as="geometry" />
        </mxCell>
        <mxCell id="2L9yJ2ztC3iXmBt1rZ5b-30" value="y" style="edgeLabel;html=1;align=center;verticalAlign=middle;resizable=0;points=[];" vertex="1" connectable="0" parent="2L9yJ2ztC3iXmBt1rZ5b-29">
          <mxGeometry x="-0.1709" y="-1" relative="1" as="geometry">
            <mxPoint as="offset" />
          </mxGeometry>
        </mxCell>
        <mxCell id="2L9yJ2ztC3iXmBt1rZ5b-20" value="&lt;div&gt;&lt;br&gt;&lt;/div&gt;&lt;div&gt;判断当前时间是否比初始排查时间提前24小时还晚&lt;/div&gt;" style="rhombus;whiteSpace=wrap;html=1;" vertex="1" parent="1">
          <mxGeometry x="317" y="750" width="194" height="120" as="geometry" />
        </mxCell>
        <mxCell id="2L9yJ2ztC3iXmBt1rZ5b-27" style="edgeStyle=orthogonalEdgeStyle;rounded=0;orthogonalLoop=1;jettySize=auto;html=1;exitX=1;exitY=0.5;exitDx=0;exitDy=0;" edge="1" parent="1" source="2L9yJ2ztC3iXmBt1rZ5b-22">
          <mxGeometry relative="1" as="geometry">
            <mxPoint x="410" y="440" as="targetPoint" />
          </mxGeometry>
        </mxCell>
        <mxCell id="2L9yJ2ztC3iXmBt1rZ5b-22" value="重新拿取任务" style="whiteSpace=wrap;html=1;" vertex="1" parent="1">
          <mxGeometry x="80" y="410" width="120" height="60" as="geometry" />
        </mxCell>
        <mxCell id="2L9yJ2ztC3iXmBt1rZ5b-32" value="" style="edgeStyle=orthogonalEdgeStyle;rounded=0;orthogonalLoop=1;jettySize=auto;html=1;" edge="1" parent="1" source="2L9yJ2ztC3iXmBt1rZ5b-28" target="2L9yJ2ztC3iXmBt1rZ5b-31">
          <mxGeometry relative="1" as="geometry" />
        </mxCell>
        <mxCell id="2L9yJ2ztC3iXmBt1rZ5b-28" value="获取任务配置的工作时间" style="whiteSpace=wrap;html=1;" vertex="1" parent="1">
          <mxGeometry x="354" y="970" width="120" height="60" as="geometry" />
        </mxCell>
        <mxCell id="2L9yJ2ztC3iXmBt1rZ5b-34" value="" style="edgeStyle=orthogonalEdgeStyle;rounded=0;orthogonalLoop=1;jettySize=auto;html=1;" edge="1" parent="1" source="2L9yJ2ztC3iXmBt1rZ5b-31" target="2L9yJ2ztC3iXmBt1rZ5b-33">
          <mxGeometry relative="1" as="geometry" />
        </mxCell>
        <mxCell id="2L9yJ2ztC3iXmBt1rZ5b-31" value="判断当前时间是否为初始排查时间当天&lt;div&gt;是当天修改工作开始时间为初始排查时间&lt;/div&gt;" style="whiteSpace=wrap;html=1;" vertex="1" parent="1">
          <mxGeometry x="354" y="1110" width="120" height="60" as="geometry" />
        </mxCell>
        <mxCell id="2L9yJ2ztC3iXmBt1rZ5b-36" value="" style="edgeStyle=orthogonalEdgeStyle;rounded=0;orthogonalLoop=1;jettySize=auto;html=1;" edge="1" parent="1" source="2L9yJ2ztC3iXmBt1rZ5b-33" target="2L9yJ2ztC3iXmBt1rZ5b-35">
          <mxGeometry relative="1" as="geometry" />
        </mxCell>
        <mxCell id="2L9yJ2ztC3iXmBt1rZ5b-33" value="获取循环周期和循环周期单位" style="whiteSpace=wrap;html=1;" vertex="1" parent="1">
          <mxGeometry x="354" y="1250" width="120" height="60" as="geometry" />
        </mxCell>
        <mxCell id="2L9yJ2ztC3iXmBt1rZ5b-38" value="" style="edgeStyle=orthogonalEdgeStyle;rounded=0;orthogonalLoop=1;jettySize=auto;html=1;" edge="1" parent="1" source="2L9yJ2ztC3iXmBt1rZ5b-35" target="2L9yJ2ztC3iXmBt1rZ5b-37">
          <mxGeometry relative="1" as="geometry" />
        </mxCell>
        <mxCell id="2L9yJ2ztC3iXmBt1rZ5b-35" value="根据循环周期和循环周期单位得到任务的结束时间" style="whiteSpace=wrap;html=1;" vertex="1" parent="1">
          <mxGeometry x="354" y="1390" width="120" height="60" as="geometry" />
        </mxCell>
        <mxCell id="2L9yJ2ztC3iXmBt1rZ5b-42" value="" style="edgeStyle=orthogonalEdgeStyle;rounded=0;orthogonalLoop=1;jettySize=auto;html=1;" edge="1" parent="1" source="2L9yJ2ztC3iXmBt1rZ5b-37" target="2L9yJ2ztC3iXmBt1rZ5b-41">
          <mxGeometry relative="1" as="geometry" />
        </mxCell>
        <mxCell id="2L9yJ2ztC3iXmBt1rZ5b-43" value="n" style="edgeLabel;html=1;align=center;verticalAlign=middle;resizable=0;points=[];" vertex="1" connectable="0" parent="2L9yJ2ztC3iXmBt1rZ5b-42">
          <mxGeometry x="0.0895" y="-3" relative="1" as="geometry">
            <mxPoint as="offset" />
          </mxGeometry>
        </mxCell>
        <mxCell id="2L9yJ2ztC3iXmBt1rZ5b-37" value="根据任务的开始时间和结束时间和任务的id判断任务是否存在" style="rhombus;whiteSpace=wrap;html=1;" vertex="1" parent="1">
          <mxGeometry x="301" y="1520" width="226" height="110" as="geometry" />
        </mxCell>
        <mxCell id="2L9yJ2ztC3iXmBt1rZ5b-39" style="edgeStyle=orthogonalEdgeStyle;rounded=0;orthogonalLoop=1;jettySize=auto;html=1;exitX=0;exitY=0.5;exitDx=0;exitDy=0;entryX=0.181;entryY=0.978;entryDx=0;entryDy=0;entryPerimeter=0;" edge="1" parent="1" source="2L9yJ2ztC3iXmBt1rZ5b-37" target="2L9yJ2ztC3iXmBt1rZ5b-22">
          <mxGeometry relative="1" as="geometry" />
        </mxCell>
        <mxCell id="2L9yJ2ztC3iXmBt1rZ5b-40" value="y" style="edgeLabel;html=1;align=center;verticalAlign=middle;resizable=0;points=[];" vertex="1" connectable="0" parent="2L9yJ2ztC3iXmBt1rZ5b-39">
          <mxGeometry x="-0.8866" relative="1" as="geometry">
            <mxPoint as="offset" />
          </mxGeometry>
        </mxCell>
        <mxCell id="2L9yJ2ztC3iXmBt1rZ5b-45" value="" style="edgeStyle=orthogonalEdgeStyle;rounded=0;orthogonalLoop=1;jettySize=auto;html=1;" edge="1" parent="1" source="2L9yJ2ztC3iXmBt1rZ5b-41" target="2L9yJ2ztC3iXmBt1rZ5b-44">
          <mxGeometry relative="1" as="geometry" />
        </mxCell>
        <mxCell id="2L9yJ2ztC3iXmBt1rZ5b-41" value="生成任务，并把相关数据连带新增" style="whiteSpace=wrap;html=1;" vertex="1" parent="1">
          <mxGeometry x="354" y="1735" width="120" height="60" as="geometry" />
        </mxCell>
        <mxCell id="2L9yJ2ztC3iXmBt1rZ5b-44" value="结束" style="ellipse;whiteSpace=wrap;html=1;" vertex="1" parent="1">
          <mxGeometry x="337" y="1865" width="154" height="80" as="geometry" />
        </mxCell>
      </root>
    </mxGraphModel>
  </diagram>
</mxfile>
